<?xml version="1.0" encoding="UTF-8"?>
<svg width="752pt" height="752pt" version="1.1" viewBox="0 0 752 752" xmlns="http://www.w3.org/2000/svg">
 <path d="m376 384.95c49.844 0 90.246 35.176 90.246 78.57 0 11.547-2.8633 22.508-8 32.383h-164.5c-5.1367-9.8711-8-20.836-8-32.383 0-43.395 40.402-78.57 90.246-78.57zm-132.24 11.68c17.055 0 32.867 4.6016 45.902 12.457-12.262 15.359-19.449 34.121-19.449 54.438 0 6.8633 0.86328 13.66 2.5 20.289 1.0273 4.168 2.3477 8.207 3.9453 12.094h-106.48c-4.5938-8.832-7.1602-18.645-7.1602-28.969 0-38.832 36.156-70.305 80.75-70.305zm0-115.29c28.945 0 52.41 23.469 52.41 52.41s-23.465 52.406-52.41 52.406c-28.941 0-52.406-23.465-52.406-52.406s23.465-52.41 52.406-52.41zm264.47 115.28c44.59 0 80.75 31.48 80.75 70.309 0 10.324-2.5664 20.137-7.1602 28.969h-106.48c1.5938-3.8867 2.9141-7.9258 3.9453-12.094 1.6406-6.6289 2.5-13.426 2.5-20.289 0-20.316-7.1875-39.078-19.449-54.438 13.031-7.8516 28.848-12.461 45.902-12.461zm0-115.28c28.941 0 52.406 23.469 52.406 52.41s-23.465 52.406-52.406 52.406-52.41-23.465-52.41-52.406 23.469-52.41 52.41-52.41zm-132.24-25.242c32.348 0 58.574 26.227 58.574 58.574s-26.227 58.574-58.574 58.574-58.574-26.227-58.574-58.574 26.227-58.574 58.574-58.574z" fill-rule="evenodd"/>
</svg>
