<?xml version="1.0" encoding="UTF-8"?>
<svg width="752pt" height="752pt" version="1.1" viewBox="0 0 752 752" xmlns="http://www.w3.org/2000/svg">
 <path d="m494.4 257.61v133.2c0 8.1719-6.6289 14.801-14.801 14.801h-88.797c-8.1719 0-14.801-6.6289-14.801-14.801v-133.2c0-8.1719 6.6289-14.797 14.801-14.797h88.797c8.1719 0 14.801 6.625 14.801 14.797zm-29.602 14.801h-59.195v103.59h59.195zm-103.59-14.801v236.79c0 8.1719-6.6289 14.797-14.801 14.797h-88.797c-8.1719 0-14.797-6.625-14.797-14.797v-236.79c0-8.1719 6.625-14.797 14.797-14.797h88.797c8.1719 0 14.801 6.625 14.801 14.797zm-88.797 14.801v207.19h59.195v-207.19zm221.99 162.79v59.199c0 8.1719-6.6289 14.797-14.801 14.797h-88.797c-8.1719 0-14.801-6.625-14.801-14.797v-59.199c0-8.1719 6.6289-14.801 14.801-14.801h88.797c8.1719 0 14.801 6.6289 14.801 14.801zm-29.602 14.801h-59.195v29.598h59.195z"/>
</svg>
