<?xml version="1.0" encoding="UTF-8"?>
<svg width="752pt" height="752pt" version="1.1" viewBox="0 0 752 752" xmlns="http://www.w3.org/2000/svg">
 <path d="m179.9 363.1c-1.6367-4.3984-1.6367-9.2383 0-13.637 33.762-91.855 110.74-151.05 196.1-151.05s162.34 59.199 196.1 151.05c1.6406 4.3906 1.6406 9.2266 0 13.617-5.6836 15.527-12.816 30.484-21.309 44.672-2.6289 4.6133-7.0039 7.9766-12.141 9.3242-5.1367 1.3477-10.598 0.56641-15.152-2.1641-4.5547-2.7305-7.8164-7.1797-9.0469-12.344-1.2344-5.1641-0.33203-10.609 2.4961-15.102 5.9688-9.9766 11.148-20.41 15.492-31.195-29.145-72.164-89.883-118.39-156.44-118.39-66.555 0-127.29 46.23-156.44 118.39 9.8359 27.285 25.988 51.855 47.137 71.703 21.152 19.844 46.699 34.406 74.555 42.488 6.8047 1.7188 12.188 6.9258 14.129 13.676 1.9414 6.7461 0.15234 14.016-4.6992 19.09-4.8516 5.0742-12.035 7.1914-18.863 5.5547-35.289-10.043-67.582-28.57-94.062-53.965-26.48-25.395-46.348-56.883-57.859-91.719zm275.03-6.8281c-0.003907-26.535-13.344-51.289-35.5-65.887-22.152-14.602-50.164-17.09-74.547-6.6328 6.8633 5.1484 11.156 13.023 11.766 21.582 0.60937 8.5586-2.5273 16.961-8.5938 23.027-6.0703 6.0664-14.469 9.2031-23.027 8.5977-8.5586-0.60938-16.434-4.9023-21.582-11.766-9.3359 21.797-8.375 46.641 2.6133 67.652 10.992 21.016 30.848 35.973 54.078 40.738 23.234 4.7656 47.375-1.1641 65.75-16.152 18.379-14.988 29.043-37.445 29.043-61.16zm29.598 197.32h0.003906c5.2344 0 10.25-2.0781 13.953-5.7773 3.6992-3.7031 5.7773-8.7227 5.7773-13.953v-29.602h29.602c7.0469 0 13.562-3.7617 17.086-9.8633 3.5273-6.1055 3.5273-13.629 0-19.734-3.5234-6.1055-10.039-9.8672-17.086-9.8672h-29.602v-29.598c0-7.0508-3.7617-13.562-9.8633-17.09-6.1055-3.5234-13.629-3.5234-19.734 0-6.1055 3.5273-9.8672 10.039-9.8672 17.09v29.598h-29.598c-7.0508 0-13.562 3.7617-17.09 9.8672-3.5234 6.1055-3.5234 13.629 0 19.734 3.5273 6.1016 10.039 9.8633 17.09 9.8633h29.598v29.602c0 5.2305 2.0781 10.25 5.7812 13.953 3.6992 3.6992 8.7188 5.7773 13.953 5.7773z"/>
</svg>
