<?xml version="1.0" encoding="UTF-8"?>
<svg width="752pt" height="752pt" version="1.1" viewBox="0 0 752 752" xmlns="http://www.w3.org/2000/svg">
 <path d="m376 168.81c-54.949 0-107.65 21.832-146.5 60.688-38.855 38.855-60.688 91.555-60.688 146.5 0 54.953 21.832 107.65 60.688 146.51 38.855 38.855 91.555 60.684 146.5 60.684 54.953 0 107.65-21.828 146.51-60.684 38.855-38.855 60.684-91.555 60.684-146.51 0-36.367-9.5703-72.098-27.758-103.59-18.184-31.496-44.34-57.652-75.836-75.84-31.496-18.184-67.227-27.758-103.6-27.758zm69.707 276.9c-2.7734 2.7578-6.5234 4.3047-10.434 4.3047-3.9102 0-7.6602-1.5469-10.434-4.3047l-59.199-59.199c-2.8242-2.7656-4.4219-6.5508-4.4375-10.508v-88.797c0-5.2852 2.8203-10.172 7.3984-12.816 4.5781-2.6406 10.219-2.6406 14.801 0 4.5781 2.6445 7.3984 7.5312 7.3984 12.816v82.73l54.906 54.906c2.7578 2.7734 4.3047 6.5234 4.3047 10.434 0 3.9102-1.5469 7.6602-4.3047 10.434z"/>
</svg>
