<?xml version="1.0" encoding="UTF-8"?>
<svg width="752pt" height="752pt" version="1.1" viewBox="0 0 752 752" xmlns="http://www.w3.org/2000/svg">
 <g>
  <path d="m572.82 373.63h-50.199v200.99h-95.664v-100.21c0-28.129-22.828-50.957-50.957-50.957s-50.957 22.828-50.957 50.957v100.21h-95.664v-200.99h-50.199l195.12-196.25z"/>
  <path d="m572.82 364.16h-50.199c-5.1133 0-9.4727 4.3555-9.4727 9.4727v67.91 108.26 24.816l9.4727-9.4727h-83.73-11.934c3.125 3.125 6.3477 6.3477 9.4727 9.4727v-59.957-34.098c0-11.555-1.2305-22.449-6.3477-33.055-8.9023-18.469-27.469-30.781-47.641-33.152-19.512-2.2734-39.969 5.7773-52.473 20.934-9.8516 11.84-14.398 26.047-14.398 41.297v28.129 69.996c3.125-3.125 6.3477-6.3477 9.4727-9.4727h-83.73-11.934l9.4727 9.4727v-67.91-108.26-24.816c0-5.1133-4.3555-9.4727-9.4727-9.4727h-50.199c2.2734 5.3984 4.4531 10.797 6.7266 16.195 21.973-22.164 44.043-44.328 66.016-66.492 35.047-35.234 70.09-70.469 105.14-105.8 7.957-8.0508 15.914-16.008 23.867-24.059h-13.355c22.449 22.164 44.801 44.234 67.25 66.395 35.707 35.234 71.32 70.469 107.03 105.7 8.1445 8.0508 16.293 16.102 24.438 24.152 8.7148 8.6211 22.07-4.832 13.355-13.355-22.449-22.164-44.801-44.234-67.25-66.395-35.707-35.234-71.32-70.469-107.03-105.7-8.1445-8.0508-16.293-16.102-24.438-24.152-3.5977-3.5977-9.7539-3.6953-13.355 0-21.973 22.164-44.043 44.328-66.016 66.492-35.047 35.234-70.09 70.469-105.14 105.8-7.957 8.0508-15.914 16.008-23.867 24.059-5.7773 5.7773-1.5156 16.195 6.7266 16.195h50.199l-9.4727-9.4727v67.91 108.26 24.816c0 5.1133 4.3555 9.4727 9.4727 9.4727h83.73 11.934c5.1133 0 9.4727-4.3555 9.4727-9.4727v-55.312-34.668c0-7.7656-0.37891-15.344 1.9883-22.922 4.7344-15.156 18.562-26.617 34.289-28.605 15.535-1.8945 31.539 5.3047 39.969 18.562 5.4922 8.5234 6.7266 17.617 6.7266 27.469v30.402 65.07c0 5.1133 4.3555 9.4727 9.4727 9.4727h83.73 11.934c5.1133 0 9.4727-4.3555 9.4727-9.4727v-67.91-108.26-24.816l-9.4727 9.4727h50.199c12.117-0.17969 12.117-19.125-0.10156-19.125z"/>
 </g>
</svg>
