<?xml version="1.0" encoding="UTF-8"?>
<svg width="752pt" height="752pt" version="1.1" viewBox="0 0 752 752" xmlns="http://www.w3.org/2000/svg">
 <g>
  <path d="m198.5 544.6v-308.11c0-16.008 11.746-29.078 26.332-29.078h302.24c14.586 0 26.332 13.07 26.332 29.078v180.05c0 16.102-11.746 29.078-26.332 29.078h-245.7z"/>
  <path d="m212.71 544.6v-103.71-165.09c0-12.785-0.09375-25.574 0-38.359v-0.85156c0-0.94531 0.09375-1.8008 0.09375-2.7461-0.1875 3.0312 0.28516-0.94531 0.37891-1.4219 0.1875-0.75781 2.1797-5.2109 0.75781-2.5586 0.56641-1.1367 1.2305-2.1797 1.8945-3.2188 1.8008-3.0312-1.8008 1.3242 0.85156-0.94531 0.75781-0.66406 1.4219-1.4219 2.1797-2.082 1.6094-1.3242-2.6523 1.2305 0.47266-0.1875 0.47266-0.1875 3.9766-1.7031 0.85156-0.66406 1.1367-0.37891 2.2734-0.66406 3.5039-0.94531-3.125 0.85156 0.28516 0 1.1367 0 3.125-0.09375 6.3477 0 9.4727 0h142.07 141.51c3.0312 0 6.1562-0.09375 9.1875 0 0.85156 0 4.2617 0.85156 1.1367 0 1.1367 0.28516 2.2734 0.56641 3.5039 0.94531-3.125-1.043 0.37891 0.37891 0.85156 0.66406 3.0312 1.4219-1.4219-1.7031 0.94531 0.66406 0.85156 0.85156 1.7031 1.7031 2.5586 2.5586-1.7031-1.8008-0.28516-0.47266 0 0.09375 0.28516 0.47266 2.6523 5.0195 1.4219 2.1797 0.47266 1.1367 0.85156 2.4609 1.2305 3.6953 0.09375 0.47266 0.56641 4.5469 0.37891 1.4219 0.09375 0.94531 0.09375 1.8945 0.09375 2.8398v1.5156c0.09375 19.227 0 38.551 0 57.777v85.527 28.129 6.3477 1.9883c0 3.8828 0.85156-2.1797-0.1875 1.5156-0.37891 1.2305-0.66406 2.4609-1.043 3.7891-1.043 3.4102 1.3242-1.7031-0.66406 1.2305-0.37891 0.56641-3.3164 4.4531-1.3242 2.1797-0.56641 0.56641-1.043 1.2305-1.7031 1.8008-0.47266 0.47266-3.4102 2.3672-0.85156 0.75781-1.043 0.66406-1.9883 1.2305-3.125 1.8008 2.9375-1.5156-0.56641 0-1.043 0.1875-3.2188 1.2305 2.4609 0.1875-1.043 0.1875h-1.2305-0.28516-4.3555-21.5-76.91-139.23c-5.7773 0-11.176 1.4219-15.059 6.0625-5.9688 7.1055-11.934 14.207-17.809 21.312-17.617 21.027-35.234 42.055-52.852 62.984-3.5039 4.2617-7.1055 8.4297-10.609 12.691-4.9258 5.8711-5.7773 14.301 0 20.078 5.0195 5.0195 15.156 5.8711 20.078 0 24.246-28.887 48.496-57.871 72.742-86.762 3.4102-4.0742 6.8203-8.1445 10.23-12.219-3.3164 1.4219-6.7266 2.7461-10.039 4.168h102.11 134.5c3.0312 0 6.0625 0.09375 8.9961 0 23.488-0.56641 40.16-20.555 40.539-43.285 0.1875-13.164 0-26.332 0-39.402v-136.11c0-10.133-1.2305-20.176-7.0078-28.887-7.957-11.934-20.363-18.848-34.762-18.941-11.746-0.09375-23.586 0-35.328 0h-149.75-112.52c-8.1445 0-16.102 1.2305-23.207 5.4922-13.543 8.1445-20.648 23.207-20.742 38.645-0.09375 11.082 0 22.164 0 33.246v148.23 119.34 6.4414c0 7.3867 6.5352 14.586 14.207 14.207 7.7695-0.39062 14.305-6.3594 14.305-14.312z"/>
 </g>
</svg>
