<?xml version="1.0" encoding="UTF-8"?>
<svg width="752pt" height="752pt" version="1.1" viewBox="0 0 752 752" xmlns="http://www.w3.org/2000/svg">
 <path d="m527.55 489.66h-18.941v-132.6c-0.035157-33.508-12.754-65.758-35.594-90.27-22.844-24.512-54.117-39.465-87.539-41.859v-38.359h-18.941v38.359c-33.422 2.3945-64.695 17.348-87.539 41.859-22.844 24.512-35.559 56.762-35.594 90.27v132.6h-18.941v18.941h86.004l-0.003907 0.003907c3.2148 21.066 16.359 39.309 35.332 49.02 18.969 9.7148 41.453 9.7148 60.426 0 18.973-9.7109 32.117-27.953 35.332-49.02h86zm-265.2-132.6c0-40.605 21.66-78.129 56.828-98.434 35.168-20.301 78.492-20.301 113.66 0 35.164 20.305 56.828 57.828 56.828 98.434v132.6h-227.32zm113.66 189.43c-10.918 0-21.5-3.7695-29.957-10.672-8.457-6.9062-14.27-16.52-16.453-27.215h92.824c-2.1836 10.695-7.9961 20.309-16.453 27.215-8.4609 6.9023-19.043 10.672-29.961 10.672z"/>
</svg>
