<?xml version="1.0" encoding="UTF-8"?>
<svg width="752pt" height="752pt" version="1.1" viewBox="0 0 752 752" xmlns="http://www.w3.org/2000/svg">
 <path d="m233.09 214.41c-8.7812 2.1953-14.945 10.086-14.945 19.141v142.45c0 38.844 8.7617 77.863 32.422 108.67 8.207 10.688 17.379 21.234 26.777 29.457 21.156 18.512 59.754 43.793 81.883 55.141 5.2773 2.7031 11.027 4.0586 16.777 4.0586s11.504-1.3555 16.781-4.0586c22.125-11.348 60.727-36.629 81.883-55.141 9.3984-8.2227 18.57-18.77 26.777-29.457 23.656-30.809 32.422-69.828 32.422-108.67v-142.45c0-9.0547-6.1641-16.945-14.949-19.141l-138.13-35.141c-1.5703-0.39453-3.1758-0.58984-4.7852-0.58984-1.6055 0-3.2148 0.19531-4.7852 0.58984zm235.8 116.35c7.707-7.707 7.707-20.199 0-27.906-7.7031-7.707-20.199-7.707-27.902 0l-84.711 84.711-45.246-45.246c-7.707-7.707-20.199-7.707-27.906 0-7.7031 7.707-7.7031 20.199 0 27.906l59.199 59.195c7.707 7.707 20.199 7.707 27.906 0z" fill-rule="evenodd"/>
</svg>
