<?xml version="1.0" encoding="UTF-8"?>
<svg width="752pt" height="752pt" version="1.1" viewBox="0 0 752 752" xmlns="http://www.w3.org/2000/svg">
 <g>
  <path d="m446.47 265.56c0 38.918-31.547 70.469-70.469 70.469-38.918 0-70.469-31.551-70.469-70.469s31.551-70.469 70.469-70.469c38.922 0 70.469 31.551 70.469 70.469"/>
  <path d="m422.79 265.56c0 1.8008-0.09375 3.5039-0.1875 5.3047-0.09375 0.85156-0.28516 1.8008-0.28516 2.5586 0-0.28516 1.043-6.25 0.28516-2.4609-0.66406 3.3164-1.3242 6.6289-2.3672 9.8516-0.47266 1.5156-1.3242 3.125-1.7031 4.7344 0.09375-0.28516 2.5586-5.4922 0.85156-2.1797-0.37891 0.75781-0.75781 1.5156-1.1367 2.2734-1.5156 2.9375-3.2188 5.7773-5.1133 8.4297-0.47266 0.66406-1.043 1.3242-1.4219 1.9883 0.09375-0.28516 3.8828-4.6406 1.4219-1.8945-1.1367 1.2305-2.1797 2.4609-3.3164 3.6953-1.043 1.043-1.9883 1.9883-3.125 3.0312-0.56641 0.56641-1.2305 1.043-1.8008 1.6094-2.8398 2.5586 0.1875-0.28516 1.4219-1.043-2.8398 1.6094-5.3984 3.7891-8.2422 5.3984-1.2305 0.66406-2.5586 1.3242-3.8828 1.9883-0.85156 0.47266-3.5977 1.6094 0 0.09375 3.8828-1.6094 0.28516-0.09375-0.66406 0.1875-3.2188 1.1367-6.4414 2.082-9.7539 2.7461-1.043 0.1875-6.4414 1.1367-1.8945 0.37891 4.3555-0.66406-2.1797 0.09375-3.3164 0.09375-3.5039 0.09375-7.0078-0.47266-10.512-0.37891-0.28516 0 5.5898 0.94531 3.125 0.37891-0.85156-0.1875-1.7031-0.28516-2.5586-0.47266-1.8945-0.37891-3.6953-0.75781-5.5898-1.3242-1.6094-0.47266-3.2188-0.94531-4.832-1.5156-0.75781-0.28516-1.6094-0.75781-2.3672-0.85156 0.28516 0.09375 5.4922 2.5586 2.1797 0.85156-2.9375-1.5156-5.8711-3.0312-8.7148-4.832-1.3242-0.85156-2.6523-1.9883-4.0742-2.8398 0.28516 0.09375 4.6406 3.8828 1.8945 1.4219-0.56641-0.56641-1.2305-1.043-1.8945-1.6094-2.4609-2.1797-4.6406-4.6406-6.8203-7.1055-1.1367-1.2305-1.8008-3.2188 1.4219 1.8945-0.37891-0.66406-0.94531-1.3242-1.4219-1.9883-0.94531-1.3242-1.8008-2.7461-2.6523-4.168-0.75781-1.2305-1.4219-2.4609-2.082-3.7891-0.37891-0.75781-0.75781-1.5156-1.1367-2.1797-1.8008-3.5039 0.28516 0.28516 0.66406 1.7031-0.75781-3.0312-2.1797-5.9688-2.9375-8.9961-0.37891-1.6094-0.75781-3.3164-1.043-5.0195-0.1875-0.94531-0.66406-4.0742-0.09375 0 0.66406 4.2617 0.09375 0.28516 0-0.75781-0.28516-3.3164-0.28516-6.6289 0-9.8516 0.09375-0.85156 0.1875-1.7031 0.1875-2.5586 0.1875-3.0312-0.85156 5.3984-0.37891 2.4609 0.37891-1.8945 0.66406-3.7891 1.1367-5.6836 0.75781-3.125 1.9883-5.9688 2.8398-8.9961 0.85156-2.7461-2.2734 4.832-0.94531 2.1797 0.37891-0.75781 0.66406-1.5156 1.043-2.2734 0.85156-1.7031 1.7031-3.3164 2.6523-4.9258 0.85156-1.4219 1.7031-2.7461 2.6523-4.168 0.47266-0.66406 1.043-1.3242 1.4219-1.9883 0.09375-0.1875-3.5039 4.0742-1.8008 2.3672 2.4609-2.4609 4.6406-5.2109 7.1992-7.5781 1.6094-1.5156 5.8711-3.8828 0-0.1875 1.2305-0.75781 2.3672-1.7031 3.5039-2.4609 2.9375-1.9883 6.0625-3.5977 9.1875-5.1133 1.7031-0.85156 3.3164-0.56641-2.1797 0.85156 0.75781-0.1875 1.6094-0.66406 2.3672-0.85156 1.4219-0.47266 2.7461-0.94531 4.168-1.3242 1.6094-0.47266 3.2188-0.85156 4.9258-1.2305 0.85156-0.1875 1.7031-0.37891 2.5586-0.47266 2.2734-0.37891 3.9766 0.47266-1.8008 0.1875 3.2188 0.1875 6.5352-0.47266 9.8516-0.37891 1.7031 0.09375 3.5039 0.1875 5.2109 0.37891 3.0312 0.1875-5.3984-0.85156-2.4609-0.37891 1.043 0.1875 2.082 0.37891 3.125 0.56641 3.7891 0.75781 7.293 1.8945 10.891 3.2188 1.8008 0.66406 2.5586 1.9883-2.1797-0.94531 0.66406 0.37891 1.5156 0.66406 2.2734 1.043 1.8945 0.94531 3.6953 1.8945 5.4922 2.9375 1.4219 0.85156 2.7461 1.7031 4.168 2.6523 0.66406 0.47266 1.3242 1.043 1.9883 1.4219-5.5898-3.4102-2.4609-1.8945-0.94531-0.56641 2.8398 2.4609 5.3047 5.1133 7.7656 7.8633 0.56641 0.56641 1.8945 2.4609-0.28516-0.47266-2.4609-3.3164-0.1875-0.1875 0.37891 0.56641 1.043 1.5156 2.082 3.0312 3.0312 4.6406 0.94531 1.6094 1.8008 3.2188 2.6523 4.9258 0.28516 0.66406 0.66406 1.6094 1.043 2.2734-0.75781-1.2305-1.9883-5.3047-0.75781-1.6094 1.2305 3.5977 2.3672 7.1992 3.125 10.988 0.1875 0.85156 0.28516 1.7031 0.47266 2.5586 0.56641 2.9375-0.47266-5.9688-0.28516-1.8008 0.19141 2.1719 0.38281 4.3477 0.38281 6.5273 0.09375 12.406 10.797 24.246 23.68 23.68 12.691-0.56641 23.773-10.418 23.68-23.68-0.37891-40.348-25.762-75.016-63.363-88.938-35.328-13.07-78.52-1.2305-102.39 27.848-13.164 16.008-20.648 34.477-22.352 55.219-1.5156 18.562 3.5039 38.266 13.07 54.176 20.934 34.762 61.375 51.43 100.78 43.758 43.098-8.4297 73.879-48.875 74.258-92.062 0.09375-12.406-10.988-24.246-23.68-23.68-12.887 0.57031-23.496 10.418-23.684 23.68z"/>
  <path d="m527.55 556.91h-303.09v-65.543c0-43.949 35.613-79.469 79.469-79.469h144.16c43.949 0 79.469 35.613 79.469 79.469z"/>
  <path d="m527.55 533.23h-102.77-163.1-37.316c7.8633 7.8633 15.816 15.816 23.68 23.68v-41.203-21.5c0-2.082 0-4.0742 0.09375-6.1562 0.09375-1.5156 0.1875-3.0312 0.28516-4.5469 0.28516-3.8828-0.28516 2.1797-0.37891 2.4609 0.1875-0.75781 0.28516-1.7031 0.37891-2.5586 0.56641-3.125 1.3242-6.25 2.2734-9.2812 0.47266-1.6094 1.043-3.2188 1.6094-4.7344 1.7031-4.7344-1.9883 4.0742-0.1875 0.47266 1.5156-2.9375 2.9375-5.8711 4.7344-8.7148 0.75781-1.2305 1.6094-2.3672 2.3672-3.5977 3.0312-4.4531-2.8398 3.3164-0.37891 0.37891 2.1797-2.4609 4.3555-4.9258 6.7266-7.1992 1.2305-1.1367 2.3672-2.2734 3.6953-3.3164 0.47266-0.37891 0.94531-0.75781 1.4219-1.1367 2.082-1.9883-4.2617 2.9375-1.8945 1.4219 2.6523-1.6094 5.1133-3.5039 7.7656-5.0195 1.4219-0.85156 2.9375-1.6094 4.4531-2.2734 0.66406-0.37891 1.6094-0.66406 2.2734-1.043 0.1875-0.1875-5.1133 1.9883-2.7461 1.1367 3.2188-1.043 6.3477-2.2734 9.5664-3.125 1.4219-0.37891 2.9375-0.66406 4.3555-1.043 2.082-0.37891 7.6719-0.56641 0.09375-0.1875 3.0312-0.1875 6.0625-0.47266 9.1875-0.56641h1.9883 13.07 103.81c8.4297 0 16.859-0.09375 25.195 0 3.0312 0 6.1562 0.47266 9.1875 0.56641 0.37891 0-5.6836-0.85156-3.125-0.37891 0.85156 0.1875 1.7031 0.28516 2.5586 0.47266 1.8945 0.37891 3.7891 0.75781 5.5898 1.2305 2.8398 0.75781 5.5898 1.7031 8.4297 2.7461 1.8008 0.66406 2.4609 1.9883-2.1797-0.94531 0.66406 0.37891 1.6094 0.75781 2.2734 1.043 1.5156 0.75781 2.9375 1.5156 4.4531 2.2734 2.5586 1.4219 4.9258 3.0312 7.293 4.6406 3.0312 2.082-1.6094-1.3242-1.8008-1.5156 0.56641 0.56641 1.3242 1.043 1.8945 1.5156 1.2305 1.043 2.4609 2.1797 3.6953 3.3164 2.2734 2.1797 4.2617 4.4531 6.3477 6.7266 3.2188 3.7891-2.5586-3.6953-0.28516-0.37891 1.043 1.5156 2.082 3.0312 3.125 4.6406 1.5156 2.4609 2.8398 5.0195 4.168 7.6719 2.4609 4.832-1.5156-4.168-0.1875-0.47266 0.66406 1.8008 1.3242 3.5039 1.8945 5.3047 0.94531 3.0312 1.7031 6.1562 2.2734 9.2812 0.09375 0.66406 0.1875 1.2305 0.28516 1.8945 0.56641 2.9375-0.56641-5.4922-0.37891-2.4609 0.1875 1.9883 0.37891 3.8828 0.37891 5.8711 0.1875 4.7344 0 9.5664 0 14.301v50.199 3.6953c0 12.406 10.891 24.246 23.68 23.68 12.785-0.56641 23.68-10.418 23.68-23.68v-43c0-18.848 0.94531-37.98-5.5898-55.977-11.367-31.16-35.801-55.41-67.723-65.355-14.207-4.4531-28.793-4.3555-43.477-4.3555h-106.75c-9.6602 0-19.418-0.47266-29.078 0.1875-33.531 2.1797-63.555 19.605-81.836 47.738-12.785 19.699-16.008 41.863-16.008 64.785v52.094 3.9766c0 12.785 10.891 23.68 23.68 23.68h102.77 163.1 37.316c12.406 0 24.246-10.891 23.68-23.68-0.48047-12.789-10.328-23.68-23.59-23.68z"/>
 </g>
</svg>
