<?xml version="1.0" encoding="UTF-8"?>
<svg width="752pt" height="752pt" version="1.1" viewBox="0 0 752 752" xmlns="http://www.w3.org/2000/svg">
 <path d="m566.38 553.03-115.75-115.84c35.227-39.93 47.023-95.363 31.113-146.18-15.914-50.812-57.223-89.617-108.93-102.32-51.707-12.707-106.3 2.5312-143.95 40.184-37.652 37.652-52.891 92.242-40.184 143.95 12.707 51.711 51.512 93.02 102.32 108.93 50.816 15.91 106.25 4.1133 146.18-31.113l115.84 115.75zm-229.21-83.258c-35.168 0-68.898-13.969-93.766-38.836-24.867-24.871-38.836-58.598-38.836-93.766s13.969-68.898 38.836-93.766c24.867-24.867 58.598-38.836 93.766-38.836s68.895 13.969 93.766 38.836c24.867 24.867 38.836 58.598 38.836 93.766s-13.969 68.895-38.836 93.766c-24.871 24.867-58.598 38.836-93.766 38.836z"/>
</svg>
