<?xml version="1.0" encoding="UTF-8"?>
<svg width="752pt" height="752pt" version="1.1" viewBox="0 0 752 752" xmlns="http://www.w3.org/2000/svg">
 <path d="m535.34 407.24-19.418-11.211c0.99219-6.7461 1.4922-13.441 1.4922-20.027 0-6.582-0.5-13.281-1.4883-20.023l19.418-11.211c7.8633-4.543 10.559-14.598 6.0195-22.461l-36.176-62.66c-2.1758-3.7773-5.7734-6.5312-9.9805-7.6641-4.207-1.1211-8.6953-0.53125-12.48 1.6445l-19.469 11.242c-10.578-8.3125-22.289-15.105-34.641-20.098v-22.383c0-9.082-7.3594-16.445-16.445-16.445h-72.352c-9.082 0-16.445 7.3594-16.445 16.445v22.383c-12.352 4.9922-24.062 11.785-34.633 20.098l-19.469-11.242c-3.7773-2.1758-8.2617-2.7656-12.48-1.6445-4.207 1.1289-7.8047 3.8867-9.9805 7.6641l-36.176 62.66c-4.543 7.8672-1.8438 17.922 6.0195 22.461l19.418 11.211c-0.99219 6.7461-1.4922 13.441-1.4922 20.023s0.5 13.281 1.4883 20.023l-19.418 11.211c-7.8633 4.543-10.559 14.598-6.0195 22.461l36.176 62.66c2.1758 3.7773 5.7734 6.5312 9.9805 7.6641 4.207 1.1211 8.6914 0.53125 12.48-1.6445l19.469-11.242c10.574 8.3164 22.281 15.109 34.633 20.098v22.383c0 9.082 7.3594 16.445 16.445 16.445h72.352c9.082 0 16.445-7.3594 16.445-16.445v-22.383c12.352-4.9922 24.062-11.785 34.633-20.098l19.469 11.242c3.7852 2.1797 8.2734 2.7695 12.48 1.6445 4.207-1.1289 7.8047-3.8867 9.9805-7.6641l36.176-62.66c4.5508-7.8594 1.8516-17.914-6.0117-22.457zm-159.34 18.094c-27.246 0-49.332-22.086-49.332-49.332s22.086-49.332 49.332-49.332 49.332 22.086 49.332 49.332-22.086 49.332-49.332 49.332z"/>
</svg>
