<?xml version="1.0" encoding="UTF-8"?>
<svg width="752pt" height="752pt" version="1.1" viewBox="0 0 752 752" xmlns="http://www.w3.org/2000/svg">
 <path d="m507.14 303.21c32.156 0 58.297-26.188 58.297-58.344s-26.141-58.297-58.297-58.297-58.297 26.141-58.297 58.297c0 6.4883 1.1367 12.738 3.0781 18.613l-159.03 79.465c-10.512-15.25-28.129-25.289-48.02-25.289-32.156 0.046875-58.297 26.188-58.297 58.344s26.141 58.297 58.297 58.297c19.891 0 37.508-10.039 48.02-25.289l158.98 79.469c-1.9883 5.8711-3.125 12.125-3.125 18.613 0.046874 32.203 26.238 58.344 58.395 58.344s58.297-26.141 58.297-58.297-26.141-58.297-58.297-58.297c-19.891 0-37.461 10.039-48.02 25.289l-158.98-79.516c1.9883-5.8711 3.0781-12.078 3.0781-18.613s-1.1367-12.785-3.125-18.613l158.98-79.469c10.562 15.254 28.133 25.293 48.07 25.293zm0-100.54c23.254 0 42.195 18.941 42.195 42.195 0 23.254-18.941 42.195-42.195 42.195-23.254 0-42.195-18.941-42.195-42.195-0.050781-23.254 18.895-42.195 42.195-42.195zm-262.27 215.53c-23.254 0-42.195-18.941-42.195-42.195s18.941-42.195 42.195-42.195c23.254 0 42.195 18.941 42.195 42.195 0 23.25-18.895 42.195-42.195 42.195zm262.27 46.691c23.254 0 42.195 18.941 42.195 42.195 0 23.254-18.941 42.195-42.195 42.195-23.254 0-42.195-18.941-42.195-42.195-0.050781-23.25 18.895-42.195 42.195-42.195z"/>
</svg>
