<?xml version="1.0" encoding="UTF-8"?>
<svg width="752pt" height="752pt" version="1.1" viewBox="0 0 752 752" xmlns="http://www.w3.org/2000/svg">
 <defs>
  <clipPath id="b">
   <path d="m438 139.21h168v167.79h-168z"/>
  </clipPath>
  <clipPath id="a">
   <path d="m438 445h168v167.79h-168z"/>
  </clipPath>
 </defs>
 <path d="m229.71 459.69c-46.176 0-83.691-37.516-83.691-83.691s37.516-83.691 83.691-83.691c46.176 0 83.691 37.516 83.691 83.691-0.003906 46.176-37.52 83.691-83.691 83.691zm0-153.02c-38.258 0-69.336 31.078-69.336 69.336 0 38.258 31.152 69.336 69.336 69.336 38.258 0 69.336-31.152 69.336-69.336-0.003906-38.184-31.082-69.336-69.336-69.336z"/>
 <g clip-path="url(#b)">
  <path d="m522.29 306.67c-46.176 0-83.691-37.516-83.691-83.691 0-46.25 37.52-83.766 83.691-83.766 46.176 0 83.691 37.516 83.691 83.691 0 46.172-37.516 83.766-83.691 83.766zm0-153.1c-38.258 0-69.336 31.152-69.336 69.336 0 38.258 31.078 69.336 69.336 69.336 38.258 0 69.336-31.152 69.336-69.336 0-38.258-31.078-69.336-69.336-69.336z"/>
 </g>
 <g clip-path="url(#a)">
  <path d="m522.29 612.79c-46.176 0-83.691-37.516-83.691-83.691 0-46.176 37.516-83.691 83.691-83.691s83.691 37.516 83.691 83.691c0 46.176-37.516 83.691-83.691 83.691zm0-153.1c-38.258 0-69.336 31.152-69.336 69.336s31.078 69.336 69.336 69.336c38.258 0 69.336-31.078 69.336-69.336 0-38.258-31.078-69.336-69.336-69.336z"/>
 </g>
 <path d="m293.27 340.56c-2.5156 0-4.957-1.332-6.2891-3.6992-1.9258-3.4766-0.66406-7.8438 2.8125-9.7695l156.5-86.207c3.4766-1.9258 7.8438-0.66406 9.7695 2.8125 1.9258 3.4766 0.66406 7.8438-2.8125 9.7695l-156.5 86.203c-1.1094 0.59375-2.293 0.89062-3.4766 0.89062z"/>
 <path d="m455.77 498.46c-1.1836 0-2.3672-0.29688-3.4023-0.88672l-155.91-84.652c-3.4766-1.9258-4.7344-6.2148-2.8867-9.7695 1.9258-3.4766 6.2891-4.7344 9.7695-2.8867l155.91 84.727c3.4766 1.9258 4.7344 6.2148 2.8867 9.7695-1.332 2.3672-3.8477 3.6992-6.3633 3.6992z"/>
</svg>
