<?xml version="1.0" encoding="UTF-8"?>
<svg width="752pt" height="752pt" version="1.1" viewBox="0 0 752 752" xmlns="http://www.w3.org/2000/svg">
 <g>
  <path d="m493.92 471.66c0 6.6289-5.2109 11.84-11.84 11.84h-27.941v27.941c0 6.6289-5.2109 11.84-11.84 11.84-6.6289 0-11.84-5.2109-11.84-11.84v-27.941h-27.941c-6.6289 0-11.84-5.2109-11.84-11.84 0-6.6289 5.2109-11.84 11.84-11.84h27.941v-27.941c0-6.6289 5.2109-11.84 11.84-11.84 6.6289 0 11.84 5.2109 11.84 11.84v27.941h27.941c6.6328 0.47266 11.84 5.6836 11.84 11.84z"/>
  <path d="m281.29 526.6c-4.2617 0-8.5234-1.4219-11.84-3.7891-7.1055-5.2109-9.9453-14.207-7.5781-22.73l31.73-97.086-82.402-60.145c-7.1055-5.2109-9.9453-14.207-7.5781-22.73 2.8398-8.5234 10.418-13.734 19.418-13.734h102.29l31.73-97.086c2.8398-8.5234 10.418-13.734 19.418-13.734 8.9961 0 16.574 5.6836 19.418 13.734l31.73 97.086h102.29c8.9961 0 16.574 5.6836 19.418 13.734 2.8398 8.5234 0 17.523-7.1055 22.73l-86.195 61.566c-5.2109 3.7891-12.785 2.8398-16.574-2.8398-3.7891-5.2109-2.8398-12.785 2.8398-16.574l76.246-55.41-94.238-0.003906c-8.9961 0-16.574-5.6836-19.418-13.734l-28.891-89.504-28.887 89.508c-2.8398 8.5234-10.418 13.734-19.418 13.734l-94.242-0.003906 76.246 55.41c7.1055 5.2109 9.9453 14.207 7.5781 22.73l-28.887 89.508 76.246-55.41c5.2109-3.7891 12.785-2.8398 16.574 2.8398 3.7891 5.2109 2.8398 12.785-2.8398 16.574l-84.77 61.566c-3.793 2.3711-8.0547 3.793-12.316 3.793z"/>
 </g>
</svg>
