<?xml version="1.0" encoding="UTF-8"?>
<svg width="752pt" height="752pt" version="1.1" viewBox="0 0 752 752" xmlns="http://www.w3.org/2000/svg">
 <path d="m514.13 198.41h-276.25c-21.797 0-39.465 17.668-39.465 39.465v276.25c0 21.797 17.668 39.465 39.465 39.465h276.25c21.797 0 39.465-17.668 39.465-39.465v-276.25c0-21.797-17.668-39.465-39.465-39.465zm-113.88 295.99h-45.512v-43.863h45.512zm29.012-129.61-24.406 32.32c-3.3008 4.293-5.9258 11.215-5.9258 16.824v6.9219h-42.871v-9.8945c0-14.184 3.9453-23.086 12.527-34.301l24.406-31.328c5.2812-6.9219 9.5625-14.836 9.5625-22.098 0-15.496-10.223-27.039-26.711-27.039-17.484 0-26.387 12.203-26.387 27.371h-42.871c0-40.895 31.004-65.961 69.258-65.961 37.254 0 69.582 24.078 69.582 65.961 0 16.492-6.9219 29.02-16.164 41.223z"/>
</svg>
