<?xml version="1.0" encoding="UTF-8"?>
<svg width="752pt" height="752pt" version="1.1" viewBox="0 0 752 752" xmlns="http://www.w3.org/2000/svg">
 <path d="m297.07 203.34v19.734h157.86v-29.598c0-2.6172-1.0391-5.1289-2.8867-6.9766-1.8516-1.8516-4.3594-2.8906-6.9766-2.8906h-18.516c-5.3242-13.648-15.945-24.562-29.441-30.262-13.496-5.6953-28.723-5.6953-42.219 0-13.496 5.6992-24.113 16.613-29.441 30.262h-18.512c-5.4492 0-9.8672 4.418-9.8672 9.8672zm78.93-34.531c11.242 0.082031 21.75 5.5977 28.203 14.801h-56.402c6.4531-9.2031 16.961-14.719 28.199-14.801zm147.99 44.398 0.003906 379.85c0 2.6172-1.0391 5.1289-2.8906 6.9766-1.8516 1.8516-4.3594 2.8906-6.9766 2.8906h-276.25c-5.4492 0-9.8672-4.418-9.8672-9.8672v-379.85c0-5.4492 4.418-9.8672 9.8672-9.8672h39.465v29.602c0 2.6172 1.0391 5.125 2.8867 6.9766 1.8516 1.8477 4.3633 2.8906 6.9766 2.8906h177.59c2.6172 0 5.1289-1.043 6.9766-2.8906 1.8516-1.8516 2.8906-4.3594 2.8906-6.9766v-29.602h39.465c2.6172 0 5.125 1.043 6.9766 2.8906 1.8516 1.8516 2.8906 4.3594 2.8906 6.9766z"/>
</svg>
