<?xml version="1.0" encoding="UTF-8"?>
<svg width="752pt" height="752pt" version="1.1" viewBox="0 0 752 752" xmlns="http://www.w3.org/2000/svg">
 <g>
  <path d="m527.55 565.43h-18.941v-85.246c0-12.559-4.9922-24.605-13.871-33.484-8.8828-8.8828-20.93-13.871-33.488-13.871h-170.49c-12.562 0-24.605 4.9883-33.488 13.871-8.8828 8.8789-13.871 20.926-13.871 33.484v85.246h-18.941v-85.246c0-17.582 6.9844-34.445 19.418-46.879s29.297-19.422 46.883-19.422h170.49c17.586 0 34.449 6.9883 46.883 19.422s19.418 29.297 19.418 46.879z"/>
  <path d="m376 394.95c-27.633 0-54.133-10.977-73.672-30.516-19.539-19.539-30.516-46.039-30.516-73.672 0-27.633 10.977-54.133 30.516-73.672 19.539-19.539 46.039-30.516 73.672-30.516s54.133 10.977 73.672 30.516c19.539 19.539 30.516 46.039 30.516 73.672 0 27.633-10.977 54.133-30.516 73.672-19.539 19.539-46.039 30.516-73.672 30.516zm0-189.43c-22.605 0-44.289 8.9805-60.277 24.969-15.984 15.984-24.965 37.668-24.965 60.277 0 22.605 8.9805 44.289 24.965 60.277 15.988 15.984 37.672 24.965 60.277 24.965 22.609 0 44.293-8.9805 60.277-24.965 15.988-15.988 24.969-37.672 24.969-60.277 0-22.609-8.9805-44.293-24.969-60.277-15.984-15.988-37.668-24.969-60.277-24.969z"/>
 </g>
</svg>
